/* XPM */
static char *brightness[] = {
/* columns rows colors chars-per-pixel */
"32 32 29 1 ",
"  c None",
". c #0077CC",
"X c #0078CB",
"o c #0078CC",
"O c #0078CD",
"+ c #1D87D3",
"@ c #3D98DA",
"# c #3E99DB",
"$ c #3F9ADB",
"% c #419BDB",
"& c #52A5DF",
"* c #41A5ED",
"= c #42A5ED",
"- c #41A4EE",
"; c #40A5EE",
": c #41A5EE",
"> c #42A4EE",
", c #42A5EE",
"< c #40A6EE",
"1 c #41A6EE",
"2 c #56A6E0",
"3 c #58A7E1",
"4 c #87C1EB",
"5 c #88C2EB",
"6 c #CAE6FB",
"7 c #CAE7FB",
"8 c #D0EBFC",
"9 c #D5EDFE",
"0 c #D7EEFE",
/* pixels */
"                                ",
"                                ",
"               ::               ",
"               ::               ",
"               ::               ",
"               ::               ",
"      ::       ::       ::      ",
"      :::              :::      ",
"       :::            :::       ",
"        ::   X....    ::        ",
"            ........            ",
"           ..........           ",
"          ............          ",
"         o............X         ",
"         ..............         ",
"  :::::  ...#6#........  :::::  ",
"  :::::  ...205........  :::::  ",
"         ...+804#......         ",
"         ....&806......         ",
"          ....+3%.....          ",
"           ..........           ",
"            ........            ",
"        ::   o.....   ::        ",
"       :::            :::       ",
"      :::              :::      ",
"      ::       ::       ::      ",
"               ::               ",
"               ::               ",
"               ::               ",
"               ::               ",
"                                ",
"                                "
};
