/* XPM */
static char *calendar[] = {
/* columns rows colors chars-per-pixel */
"24 24 97 2 ",
"   c None",
".  c #596C76",
"X  c #596C77",
"o  c #5B6E78",
"O  c #5C6F79",
"+  c #5D717A",
"@  c #5E707A",
"#  c #5E717B",
"$  c #5F727C",
"%  c #6B6773",
"&  c #60737C",
"*  c #61737E",
"=  c #E4374F",
"-  c #E5384F",
";  c #E6384F",
":  c #E53750",
">  c #EB3A52",
",  c #F13C54",
"<  c #F83F57",
"1  c #985C6C",
"2  c #BB5364",
"3  c #BB5365",
"4  c #CD485D",
"5  c #DB4A5F",
"6  c #E34157",
"7  c #FB4159",
"8  c #FB4259",
"9  c #FD425A",
"0  c #FE435A",
"q  c #FF435B",
"w  c #C05466",
"e  c #667781",
"r  c #697B85",
"t  c #6B7D87",
"y  c #6E7F89",
"u  c #EB6E83",
"i  c #768791",
"p  c #7E8E98",
"a  c #80909A",
"s  c #81919B",
"d  c #84939D",
"f  c #8898A2",
"g  c #8999A3",
"h  c #8C9CA5",
"j  c #8F9DA7",
"k  c #92A0AB",
"l  c #93A2AC",
"z  c #94A2AC",
"x  c #9CA9B4",
"c  c #9EACB6",
"v  c #A3B0BA",
"b  c #AAB8C1",
"n  c #E0ADC3",
"m  c #B8C5CE",
"M  c #B8C5CF",
"N  c #BAC5D0",
"B  c #BBC6D1",
"V  c #BFCAD4",
"C  c #9ED2FF",
"Z  c #A7D6FF",
"A  c #A9D7FF",
"S  c #B4DBFF",
"D  c #B5DBFF",
"F  c #BCDEFF",
"G  c #C0CCD6",
"H  c #C1CDD7",
"J  c #C2CDD7",
"K  c #C6D1DA",
"L  c #C8D3DC",
"P  c #C8D3DD",
"I  c #C9D4DE",
"U  c #CAD4DF",
"Y  c #F1D1DE",
"T  c #CDD7E1",
"R  c #CED8E2",
"E  c #CED8E3",
"W  c #D0DAE4",
"Q  c #D5DFE9",
"!  c #D6E0EA",
"~  c #D7E0EB",
"^  c #D8E1EB",
"/  c #D9E1EC",
"(  c #C7E2FF",
")  c #CAE4FF",
"_  c #CAE5FF",
"`  c #CCE5FF",
"'  c #CDE6FF",
"]  c #DFE8F2",
"[  c #D6E9FE",
"{  c #D7E9FE",
"}  c #E6EEF9",
"|  c #E7EFFA",
" . c #E8F0FA",
".. c #E8F3FF",
"X. c #EAF3FF",
"o. c #ECF4FE",
"O. c #EDF5FF",
/* pixels */
"            .                     .             ",
"          1 . w                 w . 1     ,     ",
"  q q q q 2 . 5 q q q q q q q q 5 . 2 q q 7 :   ",
"  q q q < 4 % 6 7 q q q q q q 7 6 % 4 < q q ;   ",
"  q q q q q q q q q q q q q q q q q q q q q ;   ",
"  > > > > > > > > > > > > > > > > > > > > > =   ",
"  q q q q q q q q q q q q q q q q q q q q q ; u ",
"  Y Y Y Y Y Y Y Y Y Y Y Y Y Y Y Y Y Y Y Y Y n   ",
"  O.O.O.O.O.O.O.O.O.O.O.O.O.O.O.O.O.O.O.O.O.{   ",
"  O.O.O.O.O.O.O.E N ^ O.O.O.O.E ! O.O.O.O.O.{   ",
"  O.O.O.O.O.O.j . . o b O.O.V O d O.O.O.O.O.{   ",
"  O.O.O.O.O.N . z P p o / T O . s O.O.O.O.O.{   ",
"  O.O.O.O.O.c +  .O.P . N E f e s O.O.O.O.O.{   ",
"  O.O.O.O.O.] I O.} k . W O.O.y s O.O.O.O.O.{   ",
"  O.O.O.O.O.O.O.I + . f O.O.O.y s O.O.O.O.O.{   ",
"  O.O.O.O.O.O.O.] l & t } O.O.y s O.O.O.O.O.{   ",
"  O.O.O.O.O.G z O.O.M . G O.O.y s O.O.O.O.O.{   ",
"  O.O.O.O.O.v . ! O.M . G O.O.y s O.O.O.O.O.{   ",
"  O.O.O.O.O.Q + r j $ t } O.O.y s O.O.O.O.O.{   ",
"  O.O.O.O.O.O.K i & s ! O.O.O.f x O.O.O.O.O.{ _ ",
"  O.O.O.O.O.O.O.O.O.O.O.O.O.O.O.O.O.O.O.O.O.{ ( ",
"  ..O.O.O.O.O.O.O.O.O.O.O.O.O.O.O.O.O.O.O...{   ",
"  F _ ` ` ` ` ` ` ` ` ` ` ` ` ` ` ` ` ` ` ` A   ",
"  D D D D D D D D D D D D D D D D D D D D Z C   "
};
