/* XPM */
static char *cpu[] = {
/* columns rows colors chars-per-pixel */
"25 25 220 2 ",
"   c None",
".  c #44AFCF",
"X  c #44B0CF",
"o  c #45B0CF",
"O  c #52B1CE",
"+  c #44B0D0",
"@  c #45B0D0",
"#  c #45B1D0",
"$  c #46B0D0",
"%  c #47B0D0",
"&  c #47B1D1",
"*  c #47B2D1",
"=  c #47B1D2",
"-  c #46B2D2",
";  c #49B3D2",
":  c #49B3D3",
">  c #4BB3D3",
",  c #49B4D3",
"<  c #4AB4D3",
"1  c #4BB4D3",
"2  c #4DB5D3",
"3  c #4BB4D4",
"4  c #4BB5D4",
"5  c #4CB5D4",
"6  c #4CB5D5",
"7  c #4DB5D5",
"8  c #4EB5D5",
"9  c #4DB6D5",
"0  c #4EB6D5",
"q  c #4EB7D5",
"w  c #4FB7D6",
"e  c #51B5D4",
"r  c #50B7D6",
"t  c #5DB7D0",
"y  c #5CB7D1",
"u  c #50B8D6",
"i  c #50B8D7",
"p  c #51B8D7",
"a  c #5EB8D2",
"s  c #5ABBD7",
"d  c #51B9D8",
"f  c #52B9D8",
"g  c #53B9D8",
"h  c #52BAD8",
"j  c #53BAD8",
"k  c #53BAD9",
"l  c #54BAD9",
"z  c #54BBD9",
"x  c #55BBD9",
"c  c #55BADA",
"v  c #54BBDA",
"b  c #55BBDA",
"n  c #55BBDB",
"m  c #55BCDA",
"M  c #57BCDA",
"N  c #56BCDB",
"B  c #57BDDB",
"V  c #57BDDC",
"C  c #5ABAD8",
"Z  c #5BBDD9",
"A  c #58BDDB",
"S  c #5ABCDA",
"D  c #5BBEDB",
"F  c #5CBEDB",
"G  c #5FBEDA",
"H  c #58BDDC",
"J  c #58BEDC",
"K  c #59BEDC",
"L  c #58BEDD",
"P  c #59BFDD",
"I  c #5ABEDC",
"U  c #5ABFDD",
"Y  c #5BBFDD",
"T  c #5CBFDD",
"R  c #64B7D0",
"E  c #66BBD3",
"W  c #62BDD7",
"Q  c #69BCD5",
"!  c #6CBDD6",
"~  c #62BDD8",
"^  c #63BEDA",
"/  c #67BED8",
"(  c #61BFDC",
")  c #77BED4",
"_  c #5BC0DD",
"`  c #5BC0DE",
"'  c #5EC1DD",
"]  c #5DC0DE",
"[  c #5CC1DE",
"{  c #5CC1DF",
"}  c #5DC1DF",
"|  c #5FC1DE",
" . c #5EC2DF",
".. c #5FC2DF",
"X. c #61C1DD",
"o. c #62C2DE",
"O. c #64C1DD",
"+. c #66C2DE",
"@. c #67C4DF",
"#. c #74C0D6",
"$. c #70C3DC",
"%. c #7BC3D8",
"&. c #7AC4DA",
"*. c #7DC5DA",
"=. c #5EC2E0",
"-. c #5FC2E0",
";. c #5FC3E1",
":. c #60C3E1",
">. c #61C3E1",
",. c #61C3E2",
"<. c #63C4E0",
"1. c #61C4E2",
"2. c #62C4E2",
"3. c #63C4E3",
"4. c #63C5E3",
"5. c #63C6E3",
"6. c #65C4E0",
"7. c #64C6E3",
"8. c #67C6E2",
"9. c #66C6E3",
"0. c #64C6E4",
"q. c #65C6E4",
"w. c #65C7E4",
"e. c #66C7E4",
"r. c #67C7E4",
"t. c #65C8E4",
"y. c #66C8E5",
"u. c #67C8E5",
"i. c #67C9E5",
"p. c #67C9E6",
"a. c #68C9E5",
"s. c #68C9E6",
"d. c #69C9E6",
"f. c #69CAE6",
"g. c #69CAE7",
"h. c #6ACAE6",
"j. c #6ACAE7",
"k. c #6ACBE7",
"l. c #6BCBE7",
"z. c #6CCBE7",
"x. c #6BCBE8",
"c. c #6CCCE8",
"v. c #6CCCE9",
"b. c #6DCDE9",
"n. c #6ECDE9",
"m. c #6DCDEA",
"M. c #6ECDEA",
"N. c #6FCEEA",
"B. c #6ECEEB",
"V. c #70CEEB",
"C. c #70CFEB",
"Z. c #71CFEB",
"A. c #71CEEC",
"S. c #72D0EB",
"D. c #72D0EC",
"F. c #73D0EC",
"G. c #73D1EC",
"H. c #74D1ED",
"J. c #74D2EC",
"K. c #74D2ED",
"L. c #75D3ED",
"P. c #75D3EE",
"I. c #76D3EE",
"U. c #76D4EE",
"Y. c #77D4EF",
"T. c #78D4F0",
"R. c #79D5F0",
"E. c #7AD6F1",
"W. c #8BC6D7",
"Q. c #82C6DB",
"!. c #89C7DA",
"~. c #85C8DB",
"^. c #83C8DC",
"/. c #8FCADB",
"(. c #89C9DC",
"). c #89CBDD",
"_. c #96CEDE",
"`. c #98CFDF",
"'. c #9BCEDE",
"]. c #9ACFDE",
"[. c #89CBE0",
"{. c #92CEE0",
"}. c #94CFE0",
"|. c #9AD0E0",
" X c #99D1E2",
".X c #9DD2E0",
"XX c #A3D2E1",
"oX c #A2D3E1",
"OX c #A2D3E2",
"+X c #A1D4E2",
"@X c #A2D4E3",
"#X c #AAD6E4",
"$X c #AFD8E5",
"%X c #BEE0EA",
"&X c #BFE0EA",
"*X c #C1E1EA",
"=X c #C0E2EB",
"-X c #C3E3ED",
";X c #C8E5ED",
":X c #CAE6EE",
">X c #CDE7EF",
",X c #CEE7EF",
"<X c #CFE8F0",
"1X c #D0E8F0",
"2X c #D0E9F0",
"3X c #D2E9F0",
"4X c #D6EBF1",
"5X c #D8EDF3",
"6X c #DBEDF3",
"7X c #DCEEF4",
"8X c #E2F1F6",
"9X c #E5F3F7",
"0X c #E7F3F7",
"qX c #E9F4F8",
"wX c #EAF5F8",
"eX c #F0F8FA",
"rX c #F1F8FB",
"tX c #F2F9FB",
"yX c #F7FBFD",
"uX c #FEFEFF",
/* pixels */
"                                                  ",
"                                                  ",
"                                                  ",
"      E.E.Y.K.K.G.A.N.N.N.d.d.u.w.w.4.4.=.{       ",
"      E.Y.K.K.G.Z.N.N.N.x.d.d.u.w.4.4.>.=.{       ",
"      K.K.K.G.Z.N.N.N.x.d.d.u.w.4.4.>.=.{ `       ",
"      K.K.G.Z.N.N.N.d.d.u.u.w.4.4.>.=.{ ` U       ",
"      G.G.Z.N.N.N.d.d.u.w.w.4.4.>.=.{ ` U Z       ",
"      S.Z.N.N.N.d.d.u.6.o.o.>.>.=.Z Z U U z       ",
"      Z.N.N.N.d.d.u.6.@X7X2XF =.U OX#XN N z       ",
"      N.z.@.O.d.O.( {.<X~ W Z { ! rX%Xz z g       ",
"      N.x.[.9X~ 5X).>X.X@X&.T s >XOX%Xg g g       ",
"      x.d.6.-X;X=XF 8X;X`.rXE $X`.!.%Xr g i       ",
"      d.d.w.|.yX}.{ 4XQ.Z 2XW.uX6X9XrX`.r 5       ",
"      d.u.$.wX%.wX/ |.2X_.wXt a t /.=XO 5 4       ",
"      u.4.*.^.{ ~.#.C ).OXQ z z g R ) 2 5 ;       ",
"      6.4.4.>.=.{ ` U U N N z g i 5 5 5 2 ;       ",
"      4.4.>.=.{ ` U U N N z g i 5 5 5 , ; *       ",
"      >.>.=.{ ` U U N z z g i 5 5 5 , ; * *       ",
"      >.=.{ ` U U N z g g i 5 5 5 , ; * * *       ",
"      { { ` U U N z g g i 5 5 5 , ; * * * .       ",
"      { U U V N z g i 5 5 5 4 , * * o o o o       ",
"                                                  ",
"                                                  ",
"                                                  "
};
