/* XPM */
static char * haskell[] = {
"24 22 4 1",
" 	c None",
".	c #473763",
"+	c #634F88",
"@	c #A14D8D",
"                        ",
"                        ",
"                        ",
"                        ",
"  .... ++++             ",
"   .... +++             ",
"    ... ++++            ",
"    .... ++++           ",
"     .... +++ @@@@@@@@  ",
"      ... ++++ @@@@@@@  ",
"      .... ++++         ",
"      .... ++++         ",
"      ... ++++++ @@@@@  ",
"     .... +++++++ @@@@  ",
"    .... ++++ +++       ",
"    ... ++++  ++++      ",
"   .... +++    ++++     ",
"  .... ++++     +++     ",
"                        ",
"                        ",
"                        ",
"                        "};
